<?xml version="1.0" encoding="utf-8"?>
<!-- Generator: Adobe Illustrator 22.0.1, SVG Export Plug-In . SVG Version: 6.00 Build 0)  -->
<svg version="1.1" id="Layer_1" xmlns="http://www.w3.org/2000/svg" xmlns:xlink="http://www.w3.org/1999/xlink" x="0px" y="0px"
	 viewBox="0 0 80 80" style="enable-background:new 0 0 80 80;" xml:space="preserve">
<style type="text/css">
	.st0{fill:#120C08;}
	.st1{fill:#4A3020;}
	.st2{fill:#EDB485;}
	.st3{fill:#FFC89F;}
	.st4{fill:#0297AF;}
	.st5{fill:#02798C;}
	.st6{fill:#FFFFFF;}
	.st7{fill:#EAEBED;}
	.st8{fill:#C9CACC;}
	.st9{fill:#515E5E;}
	.st10{fill:#2C3333;}
	.st11{fill:#052538;}
	.st12{fill:#2B3E4F;}
	.st13{fill:#657576;}
	.st14{fill:#1E2121;}
	.st15{fill:#5A6869;}
	.st16{fill:#263536;}
	.st17{fill:#1B2626;}
	.st18{fill:#95A5A6;}
	.st19{fill:#829091;}
	.st20{fill:#F0F0F0;}
	.st21{fill:#E0E0E0;}
	.st22{fill:#FFB923;}
	.st23{fill:#182121;}
	.st24{fill:#F7F7F7;}
</style>
<g>
	<path class="st0" d="M39.6,13h-5.8l0.1-0.7l-6,0.2v31c0.5,0,1,0,1.1,0c0.3,0,0.5,0,0.8,0C38.8,43.6,45.4,43.2,39.6,13z"/>
	<path class="st1" d="M16.1,13c-5.9,30.2,0.8,30.6,9.8,30.6c0.2,0,1.1,0,1.9,0v-31L16.1,13z"/>
</g>
<g>
	<path class="st2" d="M27.5,20.7h-5.1c0.6,3.2,0.7,5.1,0.3,7.9c-0.1,0.5-4.8,1.5-4.9,2c2.3,0,6,0.3,9.7,0.6v0.1c0.1,0,0.2,0,0.3,0h0
		V20.7H27.5z"/>
	<path class="st3" d="M32.9,28.6c-0.4-2.8-0.3-4.7,0.3-7.9h-5.1h-0.3v10.6c0.1,0,0.2,0,0.3,0v-0.1c3.7-0.3,7.4-0.6,9.7-0.6
		C37.7,30,33,29.1,32.9,28.6z"/>
</g>
<path class="st1" d="M27.8,1c-6.6,0-11.9,5.1-11.9,11.3c0,6.3,5.3,11.3,11.9,11.3c0,0,0.1,0,0.1,0V1C27.9,1,27.9,1,27.8,1z"/>
<path class="st0" d="M39.8,12.3c0-6.2-5.3-11.3-11.8-11.3v22.7C34.5,23.6,39.8,18.6,39.8,12.3z"/>
<g>
	<path class="st3" d="M27.8,3.3c-7.8,0-8.3,6.3-8.3,11.9c0,5.6,3.7,10.2,8.3,10.2h0L27.8,3.3L27.8,3.3z"/>
	<path class="st2" d="M36.1,15.2c0-5.6,0-11.9-8.3-11.9v22.1C32.4,25.4,36.1,20.8,36.1,15.2z"/>
</g>
<g>
	<path class="st3" d="M20.6,15.4c0.3,1.2,0,2.3-0.7,2.5c-0.7,0.2-1.4-0.7-1.7-1.9c-0.3-1.2,0-2.3,0.7-2.5
		C19.6,13.3,20.4,14.2,20.6,15.4z"/>
	<path class="st2" d="M35,15.4c-0.3,1.2,0,2.3,0.7,2.5c0.7,0.2,1.4-0.7,1.7-1.9s0-2.3-0.7-2.5C36.1,13.3,35.3,14.2,35,15.4z"/>
</g>
<g>
	<path class="st1" d="M19,7.5c-0.9,1.6-0.6,9.9,0.7,7.6c1.8-3.1,4.9-4.3,8.1-5.5h0V2.7C24.7,2.9,21,4,19,7.5z"/>
	<path class="st0" d="M35.1,6.3C35,6,34.8,5.7,34.6,5.5c1.4-1.8-1.3-2.4-1.3-2.4c0,0-2.3-0.5-5.1-0.4c-0.1,0-0.2,0-0.3,0v6.8
		c2,1.2,8.4,5.7,8.4,5.7S37.3,9.7,35.1,6.3z"/>
</g>
<polyline class="st4" points="21.8,58.3 27.8,58.3 27.8,30 21.2,30 21.8,58.3 "/>
<polygon class="st5" points="33.9,30 27.8,30 27.8,58.3 33.9,58.3 "/>
<path class="st6" d="M19.8,43.2c-0.5-1.3,0.9-3.8,0.9-3.8s-2.2-3.6-2.2-4.4c-0.3-3,2.9-5.9,2.9-5.9l6.4,26.2
	C27.8,55.3,21.8,48,19.8,43.2z"/>
<path class="st7" d="M13.7,49.4c0,0-0.9,12.5-1.7,26.5h15.9V55.3l-6.4-26.2c-5.9,1.5-10.3,3.1-10.3,3.1L13.7,49.4"/>
<path class="st8" d="M42,49.4l2.5-17.2c0,0-4.7-1.5-10.6-3.1l-6.1,26.2v20.6h15.9C42.8,61.9,42,49.4,42,49.4z"/>
<g>
	<g>
		<path class="st9" d="M35.6,42.3v3.5c0,0,0.1,0,0.1,0c0.5,0,0.8,0.3,1.3,0.3c0.3,0,1.2-0.2,1.2-1.1C38.1,44.1,37.1,42.3,35.6,42.3z
			"/>
		<path class="st10" d="M33.1,45.3c0.1,0.8,0.8,1.1,1.5,0.9c0.5-0.1,0.8-0.3,1-0.3v-3.5C34.2,42.3,32.9,44.1,33.1,45.3z"/>
		<g>
			<path class="st10" d="M31.8,42.9c0.4,0.5,1.1,0.7,1.4,0.4l-1.5-1.9C31.4,41.7,31.4,42.4,31.8,42.9z"/>
			<path class="st9" d="M31.8,41.4l1.5,1.9c0.4-0.3,0.4-1,0-1.5S32.2,41.1,31.8,41.4z"/>
		</g>
		<g>
			<path class="st10" d="M33.7,41c0.1,0.7,0.5,1.1,1,1.1l-0.3-2.4C33.9,39.8,33.6,40.4,33.7,41z"/>
			<path class="st9" d="M34.4,39.7l0.3,2.4c0.5-0.1,0.8-0.6,0.8-1.3S34.9,39.7,34.4,39.7z"/>
		</g>
		<g>
			<path class="st10" d="M35.9,40.5c-0.2,0.6,0.1,1.3,0.6,1.4l0.6-2.3C36.6,39.5,36,39.9,35.9,40.5z"/>
			<path class="st9" d="M37.1,39.6l-0.6,2.3c0.5,0.1,1-0.3,1.2-0.9C37.8,40.4,37.5,39.8,37.1,39.6z"/>
		</g>
		<g>
			<path class="st10" d="M37.6,41.9c-0.3,0.6-0.2,1.2,0.3,1.5l1-2.1C38.5,41,37.9,41.3,37.6,41.9z"/>
			<path class="st9" d="M39,41.2l-1,2.1c0.5,0.2,1-0.1,1.3-0.7C39.6,42.1,39.4,41.5,39,41.2z"/>
		</g>
	</g>
</g>
<path class="st11" d="M27.8,57.5C27.8,57.5,27.8,57.5,27.8,57.5c-1,0-1.9,0.8-1.9,1.9c0,1,0.8,1.9,1.9,1.9c0,0,0,0,0,0
	c1,0,1.9-0.8,1.9-1.9C29.7,58.3,28.9,57.5,27.8,57.5z"/>
<polyline class="st12" points="3.1,73.1 75,73.1 75,79.4 3.1,79.4 3.1,73.1 "/>
<g>
	<g>
		<path class="st13" d="M64.1,74.6c4.2-2.9,2.8-5.3-2.3-9.2L60.6,68c5.6,1.8,2.7,5.2-1.4,5.9C55,74.7,42.3,75.1,39,74.4
			c-2.4-0.5-5.9-1.2-6.4,0.8c1,0.6,3.2,1.4,7.4,1.6C46.5,77.2,59.5,77.8,64.1,74.6z"/>
		<path class="st9" d="M62.9,62.8l-1.2,2.5c5.1,3.9,6.5,6.3,2.3,9.2c-4.5,3.2-17.5,2.6-24.1,2.2c-4.2-0.2-6.3-1.1-7.4-1.6
			c-0.1,0.3-0.1,0.7,0.1,1.2c0.9,3.4,24.5,2.7,29,1.2c4.5-1.5,7-3.5,7-7C68.6,67.1,63.3,63.1,62.9,62.8z"/>
	</g>
	<g>
		<path class="st10" d="M35.5,63.3c0,6.3,6.3,10.6,14.2,10.6V48.4C41.8,48.4,35.5,57.1,35.5,63.3z"/>
		<path class="st14" d="M49.6,48.4v25.5c7.8,0,14.2-4.3,14.2-10.6C63.8,57.1,57.4,48.4,49.6,48.4z"/>
	</g>
	<g>
		<path class="st10" d="M45,72c0,1.1-1.2,1.9-2.7,1.9c-1.5,0-2.7-0.9-2.7-1.9s1.2-1.9,2.7-1.9C43.8,70,45,70.9,45,72z"/>
		<path class="st14" d="M59.1,72c0,1.1-1.2,1.9-2.7,1.9c-1.5,0-2.7-0.9-2.7-1.9s1.2-1.9,2.7-1.9C57.9,70,59.1,70.9,59.1,72z"/>
	</g>
	<g>
		<path class="st9" d="M49.6,37.5c-5.3,0-9.6,4.8-9.6,10.6c0,0.4,0,0.7,0,1c0.4,7.7,2.7,15.3,3,23c0,0.4,0.1,0.7,0.2,1h5
			c0.2-0.4,0.3-0.9,0.2-1.4c-0.8-5.2-0.8-10.4-1-15.6c0.7,0.1,1.5,0.1,2.2,0.1c0,0,0,0,0.1,0L49.6,37.5
			C49.6,37.5,49.6,37.5,49.6,37.5z"/>
		<path class="st13" d="M59.2,48.1c0-5.8-4.3-10.6-9.5-10.6v18.7c0.8,0,1.5-0.1,2.2-0.2c-0.2,5.2-0.1,10.4-1,15.6
			c-0.1,0.5,0,1,0.2,1.4h5c0.1-0.3,0.2-0.6,0.2-1c0.3-8,2.7-15.7,3-23.7C59.2,48.4,59.2,48.2,59.2,48.1z"/>
	</g>
	<g>
		<g>
			<g>
				<g>
					<path class="st13" d="M40.3,33.4c0.4-0.2,2.2-1.5,3.9-2.7L38.9,25C38.9,25,38.2,29.2,40.3,33.4z"/>
					<path class="st15" d="M47,28.6c-3.3-4.9-8.1-3.6-8.1-3.6l5.3,5.7c0.7-0.5,1.4-1,2-1.4C46.3,29.2,46.8,28.8,47,28.6z"/>
				</g>
			</g>
			<g>
				<g>
					<path class="st16" d="M40.9,32.4c0.3-0.2,1.7-1.2,3-2.1L39.8,26C39.8,26,39.3,29.2,40.9,32.4z"/>
					<path class="st17" d="M46.1,28.7C43.5,25,39.8,26,39.8,26l4.1,4.4c0.6-0.4,1.1-0.8,1.5-1.1C45.5,29.2,45.9,28.8,46.1,28.7z"/>
				</g>
			</g>
		</g>
		<g>
			<g>
				<g>
					<path class="st13" d="M59,33.4c-0.4-0.2-2.2-1.5-3.9-2.7l5.3-5.7C60.4,25,61,29.2,59,33.4z"/>
					<path class="st15" d="M52.2,28.6c3.3-4.9,8.1-3.6,8.1-3.6l-5.3,5.7c-0.7-0.5-1.4-1-2-1.4C52.9,29.2,52.4,28.8,52.2,28.6z"/>
				</g>
			</g>
			<g>
				<g>
					<path class="st16" d="M58.4,32.4c-0.3-0.2-1.7-1.2-3-2.1l4.1-4.4C59.4,26,59.9,29.2,58.4,32.4z"/>
					<path class="st17" d="M53.2,28.7c2.5-3.8,6.3-2.8,6.3-2.8l-4.1,4.4c-0.6-0.4-1.1-0.8-1.5-1.1C53.7,29.2,53.3,28.8,53.2,28.7z"
						/>
				</g>
			</g>
		</g>
	</g>
	<g>
		<path class="st18" d="M39.7,35.9c0,5.4,4.4,10.8,9.9,10.8V27C44.1,27,39.7,30.4,39.7,35.9z"/>
		<path class="st19" d="M49.6,27v19.7c5.5,0,9.9-5.3,9.9-10.8S55.1,27,49.6,27z"/>
	</g>
	<g>
		<g>
			<g>
				<g>
					<path class="st6" d="M45.2,39.3c-1.4,1-1.9,2.7-1.2,3.7l5.1-3.6C48.3,38.4,46.6,38.3,45.2,39.3z"/>
					<path class="st20" d="M49.1,39.4L44,43.1l0,0c0.8,1.1,2.5,1.1,3.9,0.1C49.4,42.2,49.9,40.5,49.1,39.4L49.1,39.4z"/>
					<circle class="st9" cx="47.5" cy="40.1" r="0.2"/>
					<path class="st9" d="M46.3,39.4c0,0.1-0.1,0.2-0.2,0.2c-0.1,0-0.2-0.1-0.2-0.2s0.1-0.2,0.2-0.2C46.2,39.1,46.3,39.2,46.3,39.4z
						"/>
					<circle class="st9" cx="46.9" cy="41.6" r="0.2"/>
					<path class="st9" d="M48.5,41.4c0,0.1-0.1,0.2-0.2,0.2c-0.1,0-0.2-0.1-0.2-0.2c0-0.1,0.1-0.2,0.2-0.2
						C48.4,41.2,48.5,41.3,48.5,41.4z"/>
					<path class="st9" d="M46,40.8c0,0.1-0.1,0.2-0.2,0.2s-0.2-0.1-0.2-0.2s0.1-0.2,0.2-0.2S46,40.7,46,40.8z"/>
					<path class="st9" d="M47.1,43c0,0.1-0.1,0.2-0.2,0.2c-0.1,0-0.2-0.1-0.2-0.2s0.1-0.2,0.2-0.2C47,42.8,47.1,42.9,47.1,43z"/>
					<path class="st9" d="M44.4,41.8c0,0.1-0.1,0.2-0.2,0.2c-0.1,0-0.2-0.1-0.2-0.2c0-0.1,0.1-0.2,0.2-0.2
						C44.3,41.5,44.4,41.6,44.4,41.8z"/>
				</g>
				<path class="st9" d="M45.5,43.1c0,0.1-0.1,0.2-0.2,0.2s-0.2-0.1-0.2-0.2c0-0.1,0.1-0.2,0.2-0.2S45.5,43,45.5,43.1z"/>
			</g>
			<path class="st21" d="M46.4,40.2L35,40.1l0.6-0.2c1.6-0.4,3.3-0.6,5-0.6c3.2,0,5.3,0.8,5.4,0.8L46.4,40.2z M36.3,39.9l9.1,0.1
				c-0.8-0.2-2.5-0.6-4.8-0.6C39.1,39.4,37.7,39.6,36.3,39.9z"/>
			<path class="st21" d="M36.4,47.1l0.4-0.4c4.4-4,9.1-4.7,9.2-4.7l0.5-0.1L36.4,47.1z M45.5,42.3c-1.3,0.3-4.8,1.3-8.1,4.1
				L45.5,42.3z"/>
			<path class="st21" d="M35.1,44.1l0.5-0.3c4.1-2.5,8-2.8,9.5-2.8c0.3,0,0.4,0,0.5,0l0.5,0L35.1,44.1z M45,41.2
				c-1.5,0-4.9,0.3-8.7,2.4L45,41.2z"/>
		</g>
		<g>
			<g>
				<g>
					<path class="st6" d="M54,39.3c1.4,1,1.9,2.7,1.2,3.7l-5.1-3.6C50.9,38.4,52.6,38.3,54,39.3z"/>
					<path class="st20" d="M50.1,39.4l5.1,3.6l0,0c-0.8,1.1-2.5,1.1-3.9,0.1C49.9,42.2,49.4,40.5,50.1,39.4L50.1,39.4z"/>
					<path class="st9" d="M51.5,40.1c0,0.1,0.1,0.2,0.2,0.2c0.1,0,0.2-0.1,0.2-0.2c0-0.1-0.1-0.2-0.2-0.2
						C51.6,39.9,51.5,40,51.5,40.1z"/>
					<path class="st9" d="M53,39.4c0,0.1,0.1,0.2,0.2,0.2c0.1,0,0.2-0.1,0.2-0.2s-0.1-0.2-0.2-0.2C53.1,39.1,53,39.2,53,39.4z"/>
					<path class="st9" d="M52.1,41.6c0,0.1,0.1,0.2,0.2,0.2c0.1,0,0.2-0.1,0.2-0.2c0-0.1-0.1-0.2-0.2-0.2
						C52.2,41.4,52.1,41.5,52.1,41.6z"/>
					<path class="st9" d="M50.7,41.4c0,0.1,0.1,0.2,0.2,0.2s0.2-0.1,0.2-0.2c0-0.1-0.1-0.2-0.2-0.2S50.7,41.3,50.7,41.4z"/>
					<path class="st9" d="M53.2,40.8c0,0.1,0.1,0.2,0.2,0.2c0.1,0,0.2-0.1,0.2-0.2s-0.1-0.2-0.2-0.2C53.3,40.6,53.2,40.7,53.2,40.8z
						"/>
					<path class="st9" d="M52.2,43c0,0.1,0.1,0.2,0.2,0.2c0.1,0,0.2-0.1,0.2-0.2s-0.1-0.2-0.2-0.2C52.3,42.8,52.2,42.9,52.2,43z"/>
					<path class="st9" d="M54.8,41.8c0,0.1,0.1,0.2,0.2,0.2c0.1,0,0.2-0.1,0.2-0.2c0-0.1-0.1-0.2-0.2-0.2
						C54.9,41.5,54.8,41.6,54.8,41.8z"/>
				</g>
				<path class="st9" d="M53.7,43.1c0,0.1,0.1,0.2,0.2,0.2s0.2-0.1,0.2-0.2c0-0.1-0.1-0.2-0.2-0.2S53.7,43,53.7,43.1z"/>
			</g>
			<path class="st21" d="M52.9,40.2l0.4-0.2c0,0,2.2-0.8,5.4-0.8c1.7,0,3.3,0.2,5,0.6l0.6,0.2L52.9,40.2z M58.7,39.4
				c-2.2,0-3.9,0.4-4.8,0.6l9.1-0.1C61.6,39.6,60.1,39.4,58.7,39.4z"/>
			<path class="st21" d="M62.8,47.1L52.7,42l0.5,0.1c0,0,4.8,0.7,9.2,4.7L62.8,47.1z M53.7,42.3l8.1,4.1
				C58.5,43.5,55.1,42.6,53.7,42.3z"/>
			<path class="st21" d="M64.2,44.1l-10.9-3.1l0.5,0c0,0,0.2,0,0.5,0c1.5,0,5.3,0.3,9.5,2.8L64.2,44.1z M54.3,41.2l8.7,2.4
				C59.2,41.5,55.7,41.2,54.3,41.2z"/>
		</g>
	</g>
	<g>
		<g>
			<g>
				<g>
					<g>
						<path class="st22" d="M46.5,34.4c-0.2-0.1-0.3-0.2-0.5-0.3c0,0,0,0,0,0l-1.2,2.2l-0.1,0.2c0,0,0.1,0,0.1,0
							c0.2,0.1,0.4,0.2,0.6,0.2c1.3,0.4,2.8,0,2.8,0S47.6,35.3,46.5,34.4z"/>
						<g>
							<polygon class="st16" points="44.7,36.3 46,34.1 44.7,36.3 							"/>
							<path class="st22" d="M42.7,33.9c0,0,0.4,1.4,1.5,2.3c0.1,0.1,0.3,0.2,0.4,0.3l0.1-0.2l1.2-2.2c-0.2-0.1-0.4-0.2-0.6-0.2
								C44.1,33.5,42.7,33.9,42.7,33.9z"/>
						</g>
					</g>
					<g>
						<path class="st23" d="M44.4,34.7c-0.4,0.7-0.3,1.5,0.3,1.8l1.4-2.5C45.5,33.7,44.8,34,44.4,34.7z"/>
						<path d="M46.1,34L46.1,34l-1.4,2.5l0,0c0.5,0.3,1.3,0,1.7-0.7C46.7,35.1,46.6,34.3,46.1,34z"/>
					</g>
				</g>
				<path class="st6" d="M45.5,34.6c0,0.1-0.2,0.3-0.3,0.2c-0.2,0-0.3-0.2-0.3-0.3c0-0.1,0.2-0.3,0.3-0.2
					C45.4,34.3,45.5,34.4,45.5,34.6z"/>
				<path class="st6" d="M45.7,36.1c0,0.1-0.1,0.1-0.2,0.1c-0.1,0-0.1-0.1-0.1-0.2c0-0.1,0.1-0.1,0.2-0.1
					C45.6,35.9,45.7,36,45.7,36.1z"/>
			</g>
			<path class="st16" d="M46.6,34.2c-0.2-0.1-0.3-0.2-0.5-0.3c-0.2-0.1-0.4-0.2-0.6-0.2c-1.3-0.4-2.9,0.2-2.9,0.2s1.4-0.4,2.8,0
				c0.2,0.1,0.4,0.1,0.6,0.2c0,0,0,0,0,0c0.2,0.1,0.3,0.2,0.5,0.3c1.1,0.9,1.5,2.3,1.5,2.3S47.7,35.1,46.6,34.2z"/>
		</g>
		<g>
			<g>
				<g>
					<g>
						<path class="st22" d="M52.8,34.4c0.2-0.1,0.3-0.2,0.5-0.3c0,0,0,0,0,0l1.2,2.2l0.1,0.2c0,0-0.1,0-0.1,0
							c-0.2,0.1-0.4,0.2-0.6,0.2c-1.3,0.4-2.8,0-2.8,0S51.6,35.3,52.8,34.4z"/>
						<g>
							<polygon class="st16" points="54.5,36.3 53.3,34.1 54.5,36.3 							"/>
							<path class="st22" d="M56.6,33.9c0,0-0.4,1.4-1.5,2.3c-0.1,0.1-0.3,0.2-0.4,0.3l-0.1-0.2l-1.2-2.2c0.2-0.1,0.4-0.2,0.6-0.2
								C55.2,33.5,56.6,33.9,56.6,33.9z"/>
						</g>
					</g>
					<g>
						<path class="st23" d="M54.9,34.7c0.4,0.7,0.3,1.5-0.3,1.8L53.2,34C53.7,33.7,54.5,34,54.9,34.7z"/>
						<path d="M53.2,34L53.2,34l1.4,2.5l0,0c-0.5,0.3-1.3,0-1.7-0.7C52.5,35.1,52.7,34.3,53.2,34z"/>
					</g>
				</g>
				<path class="st6" d="M53.7,34.6c0,0.1,0.2,0.3,0.3,0.2c0.2,0,0.3-0.2,0.3-0.3c0-0.1-0.2-0.3-0.3-0.2
					C53.9,34.3,53.7,34.4,53.7,34.6z"/>
				<path class="st6" d="M53.6,36.1c0,0.1,0.1,0.1,0.2,0.1c0.1,0,0.1-0.1,0.1-0.2c0-0.1-0.1-0.1-0.2-0.1
					C53.6,35.9,53.6,36,53.6,36.1z"/>
			</g>
			<path class="st16" d="M52.6,34.2c0.2-0.1,0.3-0.2,0.5-0.3c0.2-0.1,0.4-0.2,0.6-0.2c1.3-0.4,2.9,0.2,2.9,0.2s-1.4-0.4-2.8,0
				c-0.2,0.1-0.4,0.1-0.6,0.2c0,0,0,0,0,0c-0.2,0.1-0.3,0.2-0.5,0.3c-1.1,0.9-1.5,2.3-1.5,2.3S51.5,35.1,52.6,34.2z"/>
		</g>
	</g>
	<g>
		<path class="st16" d="M47.8,38.2c-0.4,0.2-0.3,0.8,0,1.1l1.3,1.3c0.1,0.1,0.3,0.2,0.5,0.2c0,0,0,0,0.1,0v-2.8
			C48.9,37.9,48.2,38,47.8,38.2z"/>
		<path class="st23" d="M51.4,38.2c-0.4-0.2-1.1-0.3-1.8-0.3v2.8c0.2,0,0.4-0.1,0.5-0.2l1.3-1.3C51.7,38.9,51.8,38.3,51.4,38.2z"/>
	</g>
	<g>
		<path class="st6" d="M43,72.8c0,0.4,0.1,0.7,0.3,1h2.6v-3.5C44.2,70.4,43,71.5,43,72.8z"/>
		<path class="st24" d="M48.6,72.8c0-1.4-1.3-2.5-2.8-2.5v3.5h2.6C48.5,73.6,48.6,73.2,48.6,72.8z"/>
	</g>
	<g>
		<path class="st6" d="M56.2,72.8c0,0.4-0.1,0.7-0.3,1h-2.6v-3.5C54.9,70.4,56.2,71.5,56.2,72.8z"/>
		<path class="st24" d="M50.6,72.8c0-1.4,1.3-2.5,2.8-2.5v3.5h-2.6C50.7,73.6,50.6,73.2,50.6,72.8z"/>
	</g>
</g>
<path class="st4" d="M21.1,61.7l-2.7-25.4c-0.3-2.8-2.8-4.8-5.6-4.5l0,0C10,32,8,34.5,8.3,37.3"/>
<path class="st3" d="M40,65.1c0.1-0.1,3.6-0.2,3.7-0.3c0.6-0.2,1.2-0.4,1.9-0.6c1.2-0.3,2.5-0.2,3.7-0.6c0.4-0.1,1.5-0.6,1.8-0.3
	c0.1,0.1,0.1,0.2,0.1,0.3c0,1.5-1.8,1.5-2.8,1.7c-0.4,0.1-0.8,0.3-1.1,0.4c1.1,0.3,2.2,0.5,3.3,0.8c0.6,0.2,3.9,0.9,3.6,1.6
	c-0.1,0.4-0.7,0.3-1,0.3c-1.3-0.1-2.6-0.3-3.9-0.6c1.1,0.3,2.1,0.6,3.2,0.9c0.5,0.1,2.4,0.7,2.1,1.5c-0.1,0.2-0.3,0.3-0.5,0.3
	c-1.6-0.2-3.1-0.7-4.6-1.3c1.1,0.4,2.3,0.9,3.4,1.3c0.3,0.1,0.9,0.4,0.8,0.8c0,0.5-0.7,0.5-1,0.4c-1.4-0.3-2.6-0.6-3.9-1.1
	c0.9,0.6,4,1.7,3.2,2.1c-0.2,0.1-0.5,0.1-0.8,0c-1.6-0.3-2.6-0.4-4.2-0.7c-0.7-0.1-1.7-0.4-2.3-0.7c-0.8-0.3-1.4-0.5-2.2-0.8
	c-1.1-0.4-3-1.3-4-1.9L40,65.1z"/>
<path class="st4" d="M15.2,67.5l25.1,5c0.5,0.1,1,0.1,1.5,0.1c0-1.6,0.1-3.3,0.4-5.2c0.2-1.6,0.6-3.2,0.9-4.6l0,0
	c-0.3-0.1-0.5-0.2-0.8-0.2l-25.1-5"/>
</svg>
