<?xml version="1.0" encoding="utf-8"?>
<!-- Generator: Adobe Illustrator 22.0.1, SVG Export Plug-In . SVG Version: 6.00 Build 0)  -->
<svg version="1.1" id="Layer_1" xmlns="http://www.w3.org/2000/svg" xmlns:xlink="http://www.w3.org/1999/xlink" x="0px" y="0px"
	 viewBox="0 0 80 80" style="enable-background:new 0 0 80 80;" xml:space="preserve">
<style type="text/css">
	.st0{fill:#1ECDF5;}
	.st1{fill:#FF4140;}
	.st2{fill:#CC2221;}
	.st3{fill:#FF6E6E;}
	.st4{fill:#851615;}
	.st5{fill:#BDBDBD;}
	.st6{fill:#DADADA;}
	.st7{fill:#005D6E;}
	.st8{fill:#C9CACC;}
	.st9{opacity:0.2;fill:#C9CACC;}
	.st10{fill:#FFB923;}
	.st11{fill:#FFA108;}
	.st12{fill:#140903;}
	.st13{fill:#361909;}
	.st14{fill:#6D3C1F;}
	.st15{fill:#5D2C10;}
	.st16{fill:#6B3312;}
	.st17{fill:#915533;}
	.st18{fill:#8A4E2B;}
	.st19{fill:#F0CDB2;}
	.st20{fill:#F0C5A3;}
	.st21{fill:#F0D6C2;}
	.st22{fill:#231F20;}
	.st23{fill:#FFFFFF;}
	.st24{fill:#A1B400;}
	.st25{fill:#748200;}
	.st26{fill:#B3D246;}
	.st27{fill:#9CB83D;}
	.st28{fill:#616801;}
</style>
<g>
	<g>
		<path class="st0" d="M12.8,35.6c-4.9,4.3-9.3,7.3-9.8,6.8l3.4,3.9c0.5,0.6,4.9-2.5,9.8-6.8c4.9-4.3,8.5-8.2,8-8.8l-3.4-3.9
			C21.3,27.3,17.7,31.3,12.8,35.6z"/>
		<g>
			<path class="st1" d="M3,42.4l3.4,3.9c0.5,0.6,4.9-2.5,9.8-6.8l0,0l-3.4-3.9C7.9,39.9,3.5,42.9,3,42.4z"/>
			<path class="st2" d="M24.2,30.7l-3.4-3.9c0.5,0.6-3.1,4.5-8,8.8h0l3.4,3.9C21.1,35.2,24.7,31.2,24.2,30.7z"/>
		</g>
		<g>
			<path class="st1" d="M12.8,35.6c4.9-4.3,8.5-8.2,8-8.8c-0.5-0.6-4.9,2.5-9.8,6.8h0L12.8,35.6L12.8,35.6z"/>
			<path class="st3" d="M11,33.5c-4.9,4.3-8.5,8.2-8,8.8c0.5,0.6,4.9-2.5,9.8-6.8L11,33.5z"/>
		</g>
		<g>
			<path class="st4" d="M12.5,35.2c4-3.5,6.3-6.1,6.4-6.8c-0.6,0.1-3.5,2-7.5,5.5l0,0L12.5,35.2L12.5,35.2z"/>
			<path class="st2" d="M5,40.7c0.6-0.1,3.5-2,7.5-5.5l-1.1-1.3C7.4,37.4,5.1,40,5,40.7z"/>
		</g>
		<g>
			<path class="st5" d="M12.6,35.4c1.1-1,2.9-0.9,3.9,0.3c1,1.1,0.9,2.9-0.3,3.9l0,0l0.4,0.5c1.4-1.2,1.5-3.4,0.3-4.8
				c-1.2-1.4-3.4-1.5-4.8-0.3l0,0L12.6,35.4L12.6,35.4z"/>
			<path class="st6" d="M16.3,39.5c-1.1,1-2.9,0.9-3.9-0.3c-1-1.1-0.9-2.9,0.3-3.9l-0.4-0.5c-1.4,1.2-1.5,3.4-0.3,4.8
				c1.2,1.4,3.4,1.5,4.8,0.3v0L16.3,39.5z"/>
		</g>
		<path class="st7" d="M11.4,40.1c-0.1-0.2-0.4-0.2-0.5,0c-0.2,0.1-0.2,0.4,0,0.5c0.1,0.2,0.4,0.2,0.5,0
			C11.5,40.5,11.5,40.3,11.4,40.1z"/>
		<path class="st7" d="M18.2,34.2c-0.1-0.2-0.4-0.2-0.5,0c-0.2,0.1-0.2,0.4,0,0.5c0.1,0.2,0.4,0.2,0.5,0
			C18.3,34.6,18.3,34.3,18.2,34.2z"/>
		<path class="st7" d="M8.1,42.5c-0.1-0.2-0.4-0.2-0.5,0c-0.2,0.1-0.2,0.4,0,0.5c0.1,0.2,0.4,0.2,0.5,0C8.2,42.9,8.3,42.7,8.1,42.5z
			"/>
		
			<rect x="14.8" y="36.2" transform="matrix(0.7525 -0.6586 0.6586 0.7525 -20.0171 19.548)" class="st5" width="2.5" height="0.4"/>
		<path class="st7" d="M15.4,37c-0.1-0.2-0.4-0.2-0.5,0c-0.2,0.1-0.2,0.4,0,0.5c0.1,0.2,0.4,0.2,0.5,0C15.5,37.4,15.5,37.1,15.4,37z
			"/>
	</g>
	<g>
		<path class="st8" d="M7.7,59.2l6.3,8.1c-0.5,1.2-1.1,2.9,0.8,4c2.4,1.4,3.3-2.3,3.3-2.3c0.4,0.1,3.5,0.1,3.1-3
			c-0.3-2.3-2.6-1.8-4.1-1.2l-5.8-7.5c0.1-0.1,0.1-0.2,0.2-0.4c0.5-1.3,1.6-3.2-0.6-4.5c-2.4-1.4-3.3,2.3-3.3,2.3
			c-0.4-0.1-3.5-0.1-3.1,3C4.7,59.7,6.3,59.7,7.7,59.2z"/>
		<path class="st9" d="M7.7,59.2l6.3,8.1c-0.5,1.2-1.1,2.9,0.8,4c2.4,1.4,3.3-2.3,3.3-2.3c0.4,0.1,3.5,0.1,3.1-3
			c-0.3-2.3-2.6-1.8-4.1-1.2l-5.8-7.5c0.1-0.1,0.1-0.2,0.2-0.4c0.5-1.3,1.6-3.2-0.6-4.5c-2.4-1.4-3.3,2.3-3.3,2.3
			c-0.4-0.1-3.5-0.1-3.1,3C4.7,59.7,6.3,59.7,7.7,59.2z"/>
		<path class="st9" d="M10.1,54c-0.6-0.3-1-0.8-0.9-1.1c0.1-0.3,0.8-0.2,1.4,0.2c0.6,0.3,1,0.8,0.9,1.1C11.4,54.4,10.7,54.3,10.1,54
			z"/>
	</g>
	<g>
		<g>
			<path class="st2" d="M66.2,36.6c2.4-2.1,2.9-5.5,1.4-8.2L58,36.9C60.4,38.7,63.9,38.7,66.2,36.6z"/>
			<path class="st1" d="M57.5,26.6c-2.4,2.1-2.9,5.5-1.4,8.2l9.7-8.6C63.3,24.5,59.8,24.5,57.5,26.6z"/>
			<g>
				<path class="st10" d="M65.7,26.3l-9.7,8.6c0.2,0.4,0.5,0.8,0.8,1.2l0,0l9.9-8.8C66.5,26.8,66.1,26.5,65.7,26.3z"/>
				<path class="st11" d="M66.8,27.2L56.9,36c0.3,0.4,0.7,0.7,1.1,1l9.7-8.6C67.4,28,67.1,27.6,66.8,27.2L66.8,27.2z"/>
			</g>
		</g>
	</g>
	<g>
		<path class="st12" d="M32,70.6c0,1-2.6,1.8-5.7,1.8c-3.2,0-5.7-0.8-5.7-1.8c0-1,2.6-1.8,5.7-1.8C29.5,68.8,32,69.6,32,70.6z"/>
		<path class="st13" d="M53.4,70.6c0,1-2.6,1.8-5.7,1.8c-3.2,0-5.7-0.8-5.7-1.8c0-1,2.6-1.8,5.7-1.8C50.9,68.8,53.4,69.6,53.4,70.6z
			"/>
		<path class="st14" d="M51.3,67.6c0.4-0.1,1.4-0.1,6.5-0.3c5-0.2,9.4-2.8,9.4-2.8l-1.7-1.9l4.3-6.4l-2.1-1.6l-2-9.1l-2.4,2
			l-4.5-5.7l-1.6,2.9l-3.4-2.7l-0.1,5l3,2.1l-1.3,2.2l3.5,2l0.4,2.9l-1.9-0.5l-2.1,2.8L52,63.1l-2.5,3.6L51.3,67.6z"/>
		<g>
			<path class="st12" d="M18.5,58.5c0,8.4,8.5,14.1,18.9,14.1v-34C27,38.5,18.5,50.1,18.5,58.5z"/>
			<path class="st13" d="M37.2,38.5v34c10.4,0,18.9-5.8,18.9-14.1C56.1,50.1,47.7,38.5,37.2,38.5z"/>
		</g>
		<g>
			<path class="st15" d="M37.1,27.5c-8.1,0-14.7,6-14.7,13.4c0,0.4,0,0.9,0.1,1.3c0.6,9.7,4.1,19.2,4.6,29c0,0.4,0.1,0.9,0.3,1.2H35
				c0.3-0.5,0.4-1.2,0.2-1.8C33.9,64,34,57.4,33.7,50.9c1.1,0.1,2.3,0.2,3.4,0.2c0,0,0.1,0,0.1,0L37.1,27.5
				C37.2,27.5,37.2,27.5,37.1,27.5z"/>
			<path class="st16" d="M51.9,40.8c0-7.4-6.5-13.3-14.6-13.4v23.6c1.2,0,2.3-0.1,3.4-0.2c-0.3,6.6-0.2,13.1-1.5,19.6
				c-0.2,0.6-0.1,1.3,0.2,1.8h7.6c0.2-0.4,0.3-0.8,0.3-1.2c0.5-10.1,4.2-19.8,4.6-29.9C51.9,41.2,51.9,40.9,51.9,40.8z"/>
		</g>
		<path class="st15" d="M32.8,76.1c-2.4,1.7-5.4,1.6-6.8-0.3c-1.4-1.9-0.6-4.8,1.8-6.6c2.4-1.7,5.4-1.6,6.8,0.3
			C36,71.5,35.2,74.4,32.8,76.1z"/>
		<path class="st16" d="M41.5,76.1c2.4,1.7,5.4,1.6,6.8-0.3c1.4-1.9,0.6-4.8-1.8-6.6c-2.4-1.7-5.4-1.6-6.8,0.3
			C38.2,71.5,39.1,74.4,41.5,76.1z"/>
		<g>
			<path class="st13" d="M31.8,8.8c0,0-4.9-3.2-6-3.1c-0.6,0-1.4,1.1-1.4,1.1l-3.6,6.7l5.6,5.1L31.8,8.8z"/>
			<path class="st15" d="M25.4,5.9c0,0-0.1,0.1-0.2,0.2c-0.2,0.3-0.6,1-0.5,2.7c0.4,5.6,1.7,16-1.2,16.5c-0.8,0.2-6.7-6.4-7-9.4
				C16.3,13.4,19.9,9.5,25.4,5.9z"/>
		</g>
		<g>
			<path class="st13" d="M40.1,8.6c0,0,3.3-4.9,4.2-5.2c0.6-0.2,1.8,0.5,1.8,0.5l6,4.7l-3.5,8.3L40.1,8.6z"/>
			<path class="st15" d="M44.8,3.3c0,0,0.1,0,0.2,0.1c0.3,0.2,0.9,0.7,1.5,2.3c1.9,5.3,4.8,15.3,7.6,14.7c0.8-0.2,3.6-8.6,2.7-11.4
				C56.1,6.6,51.3,4.5,44.8,3.3z"/>
		</g>
		<g>
			<path class="st17" d="M26,17.7c0.1,2,1.3,3.6,1.7,5.4C27.8,24,27,29.6,31,33.2c0.5,0.5,1.1,0.7,1.9,1.4c1.2,1,2.7,2.4,4.2,2.4
				V7.4C31,7.5,25.7,10.4,26,17.7z"/>
			<path class="st18" d="M37.2,7.4c0,0-0.1,0-0.1,0V37c0,0,0,0,0,0c1.7,0,3.4-1.9,4.5-2.9c0.6-0.6,0.7-0.2,1.2-0.6
				c4.6-3.5,3.8-9.6,4-10.5c0.4-1.8,1.5-3.4,1.7-5.4C49.2,10.1,43.5,7.4,37.2,7.4z"/>
		</g>
		<g>
			<path class="st19" d="M33.6,29.4h3.5v-9C35.2,20.3,33.7,24.4,33.6,29.4z"/>
			<path class="st20" d="M37.1,20.3v9h3.5C40.6,24.4,39,20.3,37.1,20.3z"/>
		</g>
		<g>
			<g>
				<path class="st20" d="M29.3,35.3c1.4,1.5,4,1.2,5.9-0.6c1.9-1.8,2.4-4.4,1-5.9L29.3,35.3z"/>
				<path class="st21" d="M36.3,28.8c-1.4-1.5-4-1.2-5.9,0.6c-1.9,1.8-2.4,4.4-1,5.9l0,0L36.3,28.8L36.3,28.8z"/>
			</g>
		</g>
		<g>
			<g>
				<path class="st20" d="M44.9,35.3c-1.4,1.5-4,1.2-5.9-0.6c-1.9-1.8-2.4-4.4-1-5.9L44.9,35.3z"/>
				<path class="st21" d="M37.9,28.8c1.4-1.5,4-1.2,5.9,0.6c1.9,1.8,2.4,4.4,1,5.9l0,0L37.9,28.8L37.9,28.8z"/>
			</g>
		</g>
		<g>
			<path class="st22" d="M33.1,28.7c0,1.8,2.9,3.1,4,3.2v-5.1C34.9,26.7,33.1,27.6,33.1,28.7z"/>
			<path d="M37.3,26.7c0,0-0.1,0-0.1,0v5.1c0,0,0.1,0,0.1,0c1.1,0,4.1-1.3,4.1-3.2C41.4,27.6,39.5,26.7,37.3,26.7z"/>
		</g>
		<g>
			<g>
				<path class="st15" d="M33.7,20.6c-0.2,0.5-0.2-0.6-1-0.8c-0.7-0.3-1.2,0.1-1.7-0.1c-0.5-0.3,0.9-0.7,1.7-0.5
					C33.4,19.4,33.9,20,33.7,20.6z"/>
				<g>
					<path class="st22" d="M33.5,20.7c0-0.6-0.5-1.1-1.1-1.1c-0.6,0-1.1,0.5-1.1,1.1c0,0.6,0.5,1.1,1.1,1.1
						C33,21.8,33.5,21.3,33.5,20.7z"/>
					<path class="st23" d="M32.3,20.1c0-0.1-0.1-0.2-0.2-0.2c-0.1,0-0.2,0.1-0.2,0.2c0,0.1,0.1,0.2,0.2,0.2
						C32.1,20.3,32.3,20.2,32.3,20.1z"/>
				</g>
			</g>
			<g>
				<path class="st15" d="M40.8,20.6c0.2,0.5,0.2-0.6,1-0.8s1.2,0.1,1.7-0.1c0.5-0.3-0.9-0.7-1.7-0.5S40.6,20,40.8,20.6z"/>
				<g>
					<path class="st22" d="M41,20.7c0-0.6,0.5-1.1,1.1-1.1c0.6,0,1.1,0.5,1.1,1.1c0,0.6-0.5,1.1-1.1,1.1C41.5,21.8,41,21.3,41,20.7z
						"/>
					<path class="st23" d="M42.3,20.1c0-0.1,0.1-0.2,0.2-0.2c0.1,0,0.2,0.1,0.2,0.2c0,0.1-0.1,0.2-0.2,0.2
						C42.4,20.3,42.3,20.2,42.3,20.1z"/>
				</g>
			</g>
		</g>
		<g>
			<path class="st15" d="M33.1,17.5c0,0.4-0.5,0.6-1.1,0.6c-0.6,0-1.1-0.3-1.1-0.6c0-0.4,0.5-0.6,1.1-0.6
				C32.6,16.8,33.1,17.1,33.1,17.5z"/>
			<path class="st15" d="M43.6,17.5c0,0.4-0.5,0.6-1.1,0.6c-0.6,0-1.1-0.3-1.1-0.6c0-0.4,0.5-0.6,1.1-0.6
				C43.1,16.8,43.6,17.1,43.6,17.5z"/>
		</g>
	</g>
	<g>
		<g>
			<g>
				<path class="st24" d="M51.6,68.9l-3,7.3h0c0,0,0,0,0,0c0,1.3,5.9,2.8,13.1,2.8V68.9H51.6z"/>
				<path class="st25" d="M71.7,68.9H61.7V79h0c7.2,0,13.1-1.5,13.1-2.8c0,0,0,0,0,0L71.7,68.9z"/>
			</g>
			<g>
				<path class="st26" d="M51.6,68.9c0,1.3,4.5,2.3,10.1,2.3v-4.7C56.1,66.5,51.6,67.6,51.6,68.9z"/>
				<path class="st27" d="M61.7,66.5L61.7,66.5l0,4.7h0c5.6,0,10.1-1,10.1-2.3C71.7,67.6,67.2,66.5,61.7,66.5z"/>
			</g>
			<g>
				<path class="st25" d="M52.7,68.8c0,0.7,3.7,1.5,9,1.5v-3.1C56.4,67.3,52.7,68.1,52.7,68.8z"/>
				<path class="st28" d="M61.7,67.3L61.7,67.3l0,3.1h0c5.3,0,9-0.8,9-1.5C70.7,68.1,67,67.3,61.7,67.3z"/>
			</g>
		</g>
		<g>
			<path class="st23" d="M55.7,72.8h2.2c1.3,0,1.6,1,1.6,2.4c0,1.6-0.5,2.3-1.6,2.3h-2.2V72.8z M57.8,76.5c0.4,0,0.5-0.4,0.5-1.3
				c0-1.2-0.2-1.3-0.5-1.3H57v2.6H57.8z"/>
			<path class="st23" d="M61.9,72.8c1.1,0,1.9,0.2,1.9,2.4c0,2.1-0.8,2.3-1.9,2.3c-1.2,0-1.9-0.2-1.9-2.3
				C59.9,73,60.8,72.8,61.9,72.8z M61.9,76.4c0.6,0,0.7-0.2,0.7-1.2c0-1.1-0.1-1.3-0.7-1.3c-0.6,0-0.7,0.1-0.7,1.3
				C61.2,76.2,61.2,76.4,61.9,76.4z"/>
			<path class="st23" d="M65.7,72.8c1,0,1.1,0,1.9,0.2v1c0,0-0.7-0.1-1.6-0.1c-0.6,0-0.7,0.3-0.7,1.3c0,1.1,0,1.3,0.6,1.3
				c0.4,0,0.5-0.3,0.5-0.3v-0.5h-0.3v-0.8c0.3-0.2,0.7-0.2,1.1-0.2c0.1,0,0.3,0,0.4,0v2.8h-0.9l-0.4-0.3c-0.2,0.2-0.3,0.3-0.8,0.3
				c-1.3,0.1-1.5-1.1-1.5-2.4C64.1,73.7,64.4,72.8,65.7,72.8z"/>
		</g>
	</g>
</g>
</svg>
