<?xml version="1.0" encoding="utf-8"?>
<!-- Generator: Adobe Illustrator 22.0.1, SVG Export Plug-In . SVG Version: 6.00 Build 0)  -->
<svg version="1.1" id="Layer_1" xmlns="http://www.w3.org/2000/svg" xmlns:xlink="http://www.w3.org/1999/xlink" x="0px" y="0px"
	 viewBox="0 0 80 80" style="enable-background:new 0 0 80 80;" xml:space="preserve">
<style type="text/css">
	.st0{fill:#113045;}
	.st1{fill:#1A4B6C;}
	.st2{fill:#FF4140;}
	.st3{fill:#CC2221;}
	.st4{fill:#FFFFFF;}
	.st5{fill:#FF8F2B;}
	.st6{fill:#F27C14;}
	.st7{fill:#B33703;}
	.st8{fill:#DE4504;}
	.st9{fill:#F0F0F0;}
	.st10{fill:#FFA108;}
	.st11{fill:#FFB923;}
	.st12{fill:#515E5E;}
	.st13{fill:#E0E0E0;}
	.st14{fill:#75BD48;}
	.st15{fill:#263536;}
	.st16{fill:#182121;}
	.st17{fill:#F7F7F7;}
	.st18{fill:#D9D9D9;}
	.st19{fill:#140903;}
	.st20{fill:#361909;}
	.st21{fill:#6D3C1F;}
	.st22{fill:#5D2C10;}
	.st23{fill:#6B3312;}
	.st24{fill:#915533;}
	.st25{fill:#8A4E2B;}
	.st26{fill:#F0CDB2;}
	.st27{fill:#F0C5A3;}
	.st28{fill:#F0D6C2;}
	.st29{fill:#231F20;}
</style>
<polygon class="st0" points="37,1.9 37,26.2 64.7,26.2 64.7,74.4 37,74.4 37,77.5 67.7,77.5 67.7,26.3 71,26.3 "/>
<polyline class="st1" points="6.3,77.5 37,77.5 37,74.4 9.3,74.4 9.3,26.2 37,26.2 37,1.9 3,26.3 6.3,26.3 6.3,77.5 "/>
<g>
	<rect x="16.2" y="5.9" class="st2" width="20.8" height="18.1"/>
	<rect x="37" y="5.9" class="st3" width="21.9" height="18.1"/>
</g>
<g>
	<path class="st4" d="M24.8,8.8h1.7l1.7,5.5h-1.5l-0.3-1h-1.5l-0.3,1h-1.5L24.8,8.8z M26,12.1l-0.4-1.5l-0.5,1.5H26z"/>
	<path class="st4" d="M28.5,8.8H30l1.6,2.8V8.8H33v5.5h-1.4L30,11.5v2.7h-1.5V8.8z"/>
	<path class="st4" d="M33.6,8.8H35v5.5h-1.4V8.8z"/>
	<path class="st4" d="M36.1,8.8h2l0.5,3.1l0.5-3.1h2l0.6,5.5h-1.4l-0.4-3l-0.5,3h-1.7l-0.5-3l-0.3,3h-1.4L36.1,8.8z"/>
	<path class="st4" d="M43.8,8.8h1.7l1.7,5.5h-1.5l-0.3-1h-1.5l-0.3,1h-1.5L43.8,8.8z M45.1,12.1l-0.4-1.5l-0.5,1.5H45.1z"/>
	<path class="st4" d="M47.5,8.8H49v3.8c0,0.4,0.2,0.4,0.5,0.4H51v1.3h-2.2c-0.7,0-1.2-0.3-1.2-1.2V8.8z"/>
	<path class="st4" d="M22.4,17.6c0-1,0.6-1.4,1.5-1.5c1.1-0.1,1.8,0,2.3,0.2v1.1c-0.5-0.1-1.3-0.1-1.8-0.1c-0.4,0-0.6,0-0.6,0.3v0.1
		c0,0.2,0,0.4,0.4,0.4H25c1.1,0,1.4,1,1.4,1.6V20c0,1.4-0.8,1.7-1.5,1.7c-1.4,0-1.6,0-2.3-0.3v-1.1c0.3,0,1.2,0.1,1.9,0.1
		c0.3,0,0.4-0.1,0.4-0.3V20c0-0.2-0.1-0.3-0.4-0.3h-0.7c-1.4,0-1.5-1.2-1.5-1.6V17.6z"/>
	<path class="st4" d="M26.9,16.2h1.4v2.2h1.3v-2.2h1.4v5.5h-1.4v-2h-1.3v2h-1.4V16.2z"/>
	<path class="st4" d="M31.6,17.4c0-1.1,0.9-1.3,1.4-1.3c0,0,1.6,0,2.4,0.1v1.2h-2c-0.4,0-0.4,0.2-0.4,0.4v0.3l2,0.1v1.2l-2,0.1v0.3
		c0,0.4,0.2,0.4,0.5,0.4h1.9v1.2c-0.8,0.1-2.4,0.1-2.4,0.1c-0.5,0-1.5-0.1-1.5-1.2V17.4z"/>
	<path class="st4" d="M35.9,16.2h1.4v3.8c0,0.4,0.2,0.4,0.5,0.4h1.5v1.3h-2.2c-0.7,0-1.2-0.3-1.2-1.2V16.2z"/>
	<path class="st4" d="M38.8,16.2H43v1.3h-1.4v4.2h-1.4v-4.2h-1.4V16.2z"/>
	<path class="st4" d="M43.3,17.4c0-1.1,0.9-1.3,1.4-1.3c0,0,1.6,0,2.4,0.1v1.2h-2c-0.4,0-0.4,0.2-0.4,0.4v0.3l2,0.1v1.2l-2,0.1v0.3
		c0,0.4,0.2,0.4,0.5,0.4h1.9v1.2c-0.8,0.1-2.4,0.1-2.4,0.1c-0.5,0-1.5-0.1-1.5-1.2V17.4z"/>
	<path class="st4" d="M47.6,16.2H50c1,0,1.7,0.4,1.7,1.8c0,1.3-0.4,1.5-0.8,1.6l0.9,2.1h-1.7l-0.7-1.9l-0.4-0.1v2h-1.4V16.2z
		 M49.9,18.5c0.4,0,0.4-0.2,0.4-0.6c0-0.3-0.1-0.5-0.4-0.5h-0.8v1.1H49.9z"/>
</g>
<g>
	<g>
		<g>
			<path class="st5" d="M36,75.3c2.9-2.1,1.9-3.7-1.6-6.5l-0.8,1.8c3.9,1.3,1.9,3.6-1,4.2c-2.9,0.5-11.9,0.8-14.2,0.4
				c-1.7-0.3-4.2-0.8-4.5,0.5c0.7,0.4,2.2,1,5.2,1.2C23.7,77.1,32.8,77.5,36,75.3z"/>
			<path class="st6" d="M35.2,67l-0.8,1.8c3.6,2.8,4.6,4.4,1.6,6.5c-3.2,2.2-12.3,1.8-16.9,1.6c-2.9-0.2-4.5-0.7-5.2-1.2
				c-0.1,0.2,0,0.5,0,0.9c0.6,2.4,17.3,1.9,20.4,0.8c3.1-1.1,4.9-2.4,4.9-4.9C39.2,70,35.5,67.2,35.2,67z"/>
		</g>
		<g>
			<path class="st7" d="M15.9,67.4c0,4.4,4.5,7.4,10,7.4V56.9C20.4,56.9,15.9,63,15.9,67.4z"/>
			<path class="st8" d="M25.8,56.9v17.9c5.5,0,10-3,10-7.4S31.3,56.9,25.8,56.9z"/>
		</g>
		<g>
			<ellipse class="st7" cx="20.7" cy="73.4" rx="1.9" ry="1.4"/>
			<path class="st8" d="M32.5,73.4c0,0.8-0.8,1.4-1.9,1.4s-1.9-0.6-1.9-1.4c0-0.8,0.8-1.4,1.9-1.4S32.5,72.7,32.5,73.4z"/>
		</g>
		<g>
			<path class="st6" d="M25.8,49.2c-3.7,0-6.8,3.3-6.8,7.5c0,0.3,0,0.5,0,0.7c0.3,5.4,1.9,10.7,2.1,16.2c0,0.2,0.1,0.5,0.1,0.7h3.5
				c0.1-0.3,0.2-0.6,0.1-1c-0.6-3.6-0.5-7.3-0.7-11c0.5,0.1,1,0.1,1.6,0.1c0,0,0,0,0,0L25.8,49.2C25.8,49.2,25.8,49.2,25.8,49.2z"/>
			<path class="st5" d="M32.5,56.7c0-4.1-3-7.4-6.7-7.5v13.2c0.5,0,1,0,1.5-0.1c-0.2,3.7-0.1,7.3-0.7,11c-0.1,0.4,0,0.7,0.1,1h3.5
				c0.1-0.2,0.1-0.4,0.1-0.7c0.2-5.6,1.9-11.1,2.1-16.7C32.5,56.9,32.5,56.7,32.5,56.7z"/>
			<g>
				<path class="st9" d="M23.2,56.4c0,1.8,1.2,3.2,2.6,3.2v-6.4C24.4,53.2,23.2,54.6,23.2,56.4z"/>
				<path class="st4" d="M25.8,53.2v6.4c1.4,0,2.6-1.4,2.6-3.2C28.4,54.6,27.3,53.2,25.8,53.2z"/>
			</g>
		</g>
		<g>
			<g>
				<g>
					<g>
						<path class="st10" d="M19.2,46.3c0.3-0.2,1.6-1.1,2.7-1.9l-3.7-4C18.3,40.4,17.8,43.3,19.2,46.3z"/>
						<path class="st10" d="M24,42.9c-2.3-3.4-5.7-2.5-5.7-2.5l3.7,4c0.5-0.4,1-0.7,1.4-1C23.5,43.4,23.8,43.1,24,42.9z"/>
					</g>
				</g>
				<g>
					<g>
						<path class="st5" d="M19.7,45.6c0.2-0.1,1.2-0.8,2.1-1.4l-2.9-3.1C18.9,41.1,18.6,43.3,19.7,45.6z"/>
						<path class="st6" d="M23.3,43c-1.8-2.7-4.4-1.9-4.4-1.9l2.9,3.1c0.4-0.3,0.8-0.6,1.1-0.8C22.9,43.4,23.2,43.1,23.3,43z"/>
					</g>
				</g>
			</g>
			<g>
				<g>
					<g>
						<path class="st10" d="M32.4,46.3c-0.3-0.2-1.6-1.1-2.7-1.9l3.7-4C33.4,40.4,33.8,43.3,32.4,46.3z"/>
						<path class="st10" d="M27.6,42.9c2.3-3.4,5.7-2.5,5.7-2.5l-3.7,4c-0.5-0.4-1-0.7-1.4-1C28.1,43.4,27.8,43.1,27.6,42.9z"/>
					</g>
				</g>
				<g>
					<g>
						<path class="st5" d="M32,45.6c-0.2-0.1-1.2-0.8-2.1-1.4l2.9-3.1C32.7,41.1,33.1,43.3,32,45.6z"/>
						<path class="st6" d="M28.3,43c1.8-2.7,4.4-1.9,4.4-1.9l-2.9,3.1c-0.4-0.3-0.8-0.6-1.1-0.8C28.7,43.4,28.4,43.1,28.3,43z"/>
					</g>
				</g>
			</g>
		</g>
		<g>
			<path class="st11" d="M18.8,48c0,3.8,3.1,7.6,7,7.6V41.8C22,41.8,18.8,44.2,18.8,48z"/>
			<path class="st10" d="M25.8,41.8v13.8c3.9,0,7-3.8,7-7.6C32.8,44.2,29.7,41.8,25.8,41.8z"/>
		</g>
		<g>
			<g>
				<g>
					<g>
						<path class="st4" d="M22.7,50.5c-1,0.7-1.3,1.9-0.8,2.6l3.6-2.6C24.9,49.8,23.7,49.8,22.7,50.5z"/>
						<path class="st9" d="M25.5,50.6l-3.6,2.6l0,0c0.5,0.7,1.8,0.8,2.8,0.1C25.6,52.5,26,51.3,25.5,50.6L25.5,50.6z"/>
						<circle class="st12" cx="24.3" cy="51" r="0.2"/>
						<circle class="st12" cx="23.3" cy="50.5" r="0.2"/>
						<circle class="st12" cx="23.9" cy="52.1" r="0.2"/>
						<path class="st12" d="M25,52c0,0.1-0.1,0.2-0.2,0.2s-0.2-0.1-0.2-0.2c0-0.1,0.1-0.2,0.2-0.2S25,51.9,25,52z"/>
						<circle class="st12" cx="23.1" cy="51.6" r="0.2"/>
						<path class="st12" d="M24,53.1c0,0.1-0.1,0.2-0.2,0.2c-0.1,0-0.2-0.1-0.2-0.2s0.1-0.2,0.2-0.2C24,52.9,24,53,24,53.1z"/>
						<circle class="st12" cx="22" cy="52.2" r="0.2"/>
					</g>
					<circle class="st12" cx="22.8" cy="53.2" r="0.2"/>
				</g>
				<path class="st13" d="M23.6,51.1L15.5,51l0.5-0.1c1.1-0.3,2.3-0.5,3.5-0.5c2.2,0,3.8,0.6,3.8,0.6L23.6,51.1z M16.5,50.9l6.2,0.1
					c-0.6-0.2-1.8-0.4-3.3-0.4C18.4,50.6,17.5,50.7,16.5,50.9z"/>
				<path class="st13" d="M16.5,56l0.4-0.3c3.1-2.8,6.4-3.3,6.5-3.3l0.4,0L16.5,56z M22.9,52.6c-1,0.2-3.3,0.9-5.6,2.8L22.9,52.6z"
					/>
				<path class="st13" d="M15.5,53.9l0.4-0.2c2.9-1.8,5.6-2,6.7-2c0.2,0,0.3,0,0.3,0l0.4,0L15.5,53.9z M22.5,51.8
					c-1.1,0-3.4,0.2-6,1.7L22.5,51.8z"/>
			</g>
			<g>
				<g>
					<g>
						<path class="st4" d="M28.9,50.5c1,0.7,1.3,1.9,0.8,2.6l-3.6-2.6C26.7,49.8,27.9,49.8,28.9,50.5z"/>
						<path class="st9" d="M26.2,50.6l3.6,2.6l0,0c-0.5,0.7-1.8,0.8-2.8,0.1C26,52.5,25.6,51.3,26.2,50.6L26.2,50.6z"/>
						<path class="st12" d="M27.2,51c0,0.1,0.1,0.2,0.2,0.2c0.1,0,0.2-0.1,0.2-0.2c0-0.1-0.1-0.2-0.2-0.2
							C27.2,50.9,27.2,50.9,27.2,51z"/>
						<circle class="st12" cx="28.3" cy="50.5" r="0.2"/>
						<circle class="st12" cx="27.7" cy="52.1" r="0.2"/>
						<path class="st12" d="M26.6,52c0,0.1,0.1,0.2,0.2,0.2s0.2-0.1,0.2-0.2c0-0.1-0.1-0.2-0.2-0.2S26.6,51.9,26.6,52z"/>
						<path class="st12" d="M28.4,51.6c0,0.1,0.1,0.2,0.2,0.2c0.1,0,0.2-0.1,0.2-0.2c0-0.1-0.1-0.2-0.2-0.2
							C28.4,51.4,28.4,51.5,28.4,51.6z"/>
						<path class="st12" d="M27.6,53.1c0,0.1,0.1,0.2,0.2,0.2c0.1,0,0.2-0.1,0.2-0.2s-0.1-0.2-0.2-0.2C27.7,52.9,27.6,53,27.6,53.1z
							"/>
						<path class="st12" d="M29.5,52.2c0,0.1,0.1,0.2,0.2,0.2c0.1,0,0.2-0.1,0.2-0.2S29.7,52,29.6,52C29.6,52,29.5,52.1,29.5,52.2z"
							/>
					</g>
					<circle class="st12" cx="28.8" cy="53.2" r="0.2"/>
				</g>
				<path class="st13" d="M28.1,51.1l0.4-0.1c0,0,1.5-0.6,3.8-0.6c1.2,0,2.4,0.2,3.5,0.5l0.5,0.1L28.1,51.1z M32.2,50.6
					c-1.5,0-2.7,0.3-3.3,0.4l6.2-0.1C34.2,50.7,33.2,50.6,32.2,50.6z"/>
				<path class="st13" d="M35.2,56L28,52.3l0.4,0c0,0,3.4,0.5,6.5,3.3L35.2,56z M28.8,52.6l5.6,2.8C32.1,53.5,29.7,52.8,28.8,52.6z"
					/>
				<path class="st13" d="M36.1,53.9l-7.8-2.2l0.4,0c0,0,0.1,0,0.3,0c1,0,3.8,0.2,6.7,2L36.1,53.9z M29.1,51.8l6,1.7
					C32.6,52,30.2,51.8,29.1,51.8z"/>
			</g>
		</g>
		<g>
			<g>
				<g>
					<g>
						<g>
							<path class="st14" d="M23.6,47.1c-0.1-0.1-0.2-0.2-0.4-0.2c0,0,0,0,0,0l-0.9,1.5l-0.1,0.1c0,0,0,0,0.1,0
								c0.1,0.1,0.3,0.1,0.4,0.2c0.9,0.3,1.9,0,1.9,0S24.4,47.7,23.6,47.1z"/>
							<g>
								<polygon class="st15" points="22.4,48.3 23.3,46.8 22.4,48.3 								"/>
								<path class="st14" d="M20.9,46.7c0,0,0.3,1,1.1,1.6c0.1,0.1,0.2,0.1,0.3,0.2l0.1-0.1l0.9-1.5c-0.1-0.1-0.3-0.1-0.4-0.2
									C21.9,46.4,20.9,46.7,20.9,46.7z"/>
							</g>
						</g>
						<g>
							<path class="st16" d="M22.1,47.2c-0.3,0.5-0.2,1.1,0.2,1.3l1-1.8C22.9,46.5,22.4,46.8,22.1,47.2z"/>
							<path d="M23.3,46.8L23.3,46.8l-1,1.8l0,0c0.4,0.2,0.9,0,1.2-0.5C23.8,47.5,23.7,47,23.3,46.8z"/>
						</g>
					</g>
					<path class="st4" d="M22.9,47.1c0,0.1-0.1,0.2-0.2,0.2c-0.1,0-0.2-0.1-0.2-0.2c0-0.1,0.1-0.2,0.2-0.2
						C22.8,46.9,22.9,47,22.9,47.1z"/>
					<path class="st4" d="M23,48.2c0,0.1-0.1,0.1-0.1,0.1c-0.1,0-0.1-0.1-0.1-0.1c0-0.1,0.1-0.1,0.1-0.1C23,48.1,23,48.1,23,48.2z"
						/>
				</g>
				<path class="st15" d="M23.7,46.9c-0.1-0.1-0.2-0.2-0.4-0.2c-0.1-0.1-0.3-0.1-0.4-0.2c-0.9-0.3-2,0.2-2,0.2s1-0.3,1.9,0
					c0.1,0,0.3,0.1,0.4,0.2c0,0,0,0,0,0c0.1,0.1,0.2,0.1,0.4,0.2c0.8,0.6,1.1,1.6,1.1,1.6S24.5,47.5,23.7,46.9z"/>
			</g>
			<g>
				<g>
					<g>
						<g>
							<path class="st14" d="M28,47.1c0.1-0.1,0.2-0.2,0.4-0.2c0,0,0,0,0,0l0.9,1.5l0.1,0.1c0,0,0,0-0.1,0c-0.1,0.1-0.3,0.1-0.4,0.2
								c-0.9,0.3-1.9,0-1.9,0S27.2,47.7,28,47.1z"/>
							<g>
								<polygon class="st15" points="29.2,48.3 28.4,46.8 29.2,48.3 								"/>
								<path class="st14" d="M30.7,46.7c0,0-0.3,1-1.1,1.6c-0.1,0.1-0.2,0.1-0.3,0.2l-0.1-0.1l-0.9-1.5c0.1-0.1,0.3-0.1,0.4-0.2
									C29.7,46.4,30.7,46.7,30.7,46.7z"/>
							</g>
						</g>
						<g>
							<path class="st16" d="M29.5,47.2c0.3,0.5,0.2,1.1-0.2,1.3l-1-1.8C28.7,46.5,29.2,46.8,29.5,47.2z"/>
							<path d="M28.3,46.8L28.3,46.8l1,1.8l0,0c-0.4,0.2-0.9,0-1.2-0.5C27.9,47.5,28,47,28.3,46.8z"/>
						</g>
					</g>
					<path class="st4" d="M28.7,47.1c0,0.1,0.1,0.2,0.2,0.2c0.1,0,0.2-0.1,0.2-0.2s-0.1-0.2-0.2-0.2C28.8,46.9,28.7,47,28.7,47.1z"
						/>
					<path class="st4" d="M28.6,48.2c0,0.1,0.1,0.1,0.1,0.1c0.1,0,0.1-0.1,0.1-0.1c0-0.1-0.1-0.1-0.1-0.1
						C28.6,48.1,28.6,48.1,28.6,48.2z"/>
				</g>
				<path class="st15" d="M27.9,46.9c0.1-0.1,0.2-0.2,0.4-0.2c0.1-0.1,0.3-0.1,0.4-0.2c0.9-0.3,2,0.2,2,0.2s-1-0.3-1.9,0
					c-0.1,0-0.3,0.1-0.4,0.2c0,0,0,0,0,0c-0.1,0.1-0.2,0.1-0.4,0.2c-0.8,0.6-1.1,1.6-1.1,1.6S27.2,47.5,27.9,46.9z"/>
			</g>
		</g>
		<g>
			<path class="st15" d="M24.5,49.7c-0.3,0.1-0.2,0.5,0,0.7l0.9,0.9c0.1,0.1,0.2,0.1,0.3,0.2c0,0,0,0,0,0v-2
				C25.3,49.5,24.8,49.6,24.5,49.7z"/>
			<path class="st16" d="M27.1,49.7c-0.3-0.1-0.8-0.2-1.3-0.2v2c0.1,0,0.3,0,0.4-0.2l0.9-0.9C27.3,50.2,27.4,49.8,27.1,49.7z"/>
		</g>
		<g>
			<path class="st17" d="M21.1,74.1c0,0.3,0.1,0.5,0.2,0.7h1.8v-2.5C22,72.3,21.1,73.1,21.1,74.1z"/>
			<path class="st18" d="M25.1,74.1c0-1-0.9-1.7-2-1.7v2.5h1.8C25.1,74.6,25.1,74.3,25.1,74.1z"/>
		</g>
		<g>
			<path class="st18" d="M30.5,74.1c0,0.3-0.1,0.5-0.2,0.7h-1.8v-2.5C29.6,72.3,30.5,73.1,30.5,74.1z"/>
			<path class="st17" d="M26.5,74.1c0-1,0.9-1.7,2-1.7v2.5h-1.8C26.5,74.6,26.5,74.3,26.5,74.1z"/>
		</g>
	</g>
	<g>
		<ellipse class="st19" cx="38.3" cy="74.6" rx="3.1" ry="1"/>
		<ellipse class="st20" cx="50.1" cy="74.6" rx="3.1" ry="1"/>
		<path class="st21" d="M51.4,73.2c0.2-0.1,1.1,0.1,3.9,0c2.8-0.1,5.4-1.9,5.4-1.9l-1-1.1l2.4-3.5l-1.2-0.9l-1.1-5l-1.3,1.1
			l-2.5-3.1l-0.9,1.6l-1.9-1.5l0,2.8l1.7,1.2l-0.7,1.2l1.9,1.1l0.2,1.6l-1.1-0.3L54.3,68l-1.9,2.4l-1.4,2L51.4,73.2z"/>
		<g>
			<path class="st19" d="M34,67.9c0,4.6,4.7,7.8,10.4,7.8V56.9C38.7,56.9,34,63.3,34,67.9z"/>
			<path class="st20" d="M44.3,56.9v18.7c5.7,0,10.4-3.2,10.4-7.8C54.7,63.3,50.1,56.9,44.3,56.9z"/>
		</g>
		<g>
			<path class="st22" d="M44.3,50.8c-4.5,0-8.1,3.3-8.1,7.4c0,0.2,0,0.5,0,0.7c0.3,5.4,2.3,10.6,2.5,15.9c0,0.2,0.1,0.5,0.2,0.7h4.2
				c0.2-0.3,0.2-0.6,0.1-1c-0.7-3.6-0.7-7.2-0.8-10.8c0.6,0.1,1.2,0.1,1.9,0.1c0,0,0,0,0.1,0L44.3,50.8
				C44.3,50.8,44.3,50.8,44.3,50.8z"/>
			<path class="st23" d="M52.4,58.2c0-4-3.6-7.3-8.1-7.4v13c0.6,0,1.3,0,1.9-0.1C46,67.3,46,71,45.3,74.6c-0.1,0.3,0,0.7,0.1,1h4.2
				c0.1-0.2,0.2-0.4,0.2-0.7c0.3-5.5,2.3-10.9,2.6-16.4C52.4,58.4,52.4,58.3,52.4,58.2z"/>
		</g>
		<path class="st22" d="M41.9,77.6c-1.3,1-3,0.9-3.8-0.2c-0.8-1-0.3-2.7,1-3.6c1.3-1,3-0.9,3.8,0.2C43.7,75.1,43.2,76.7,41.9,77.6z"
			/>
		<path class="st23" d="M46.6,77.6c1.3,1,3,0.9,3.8-0.2c0.8-1,0.3-2.7-1-3.6c-1.3-1-3-0.9-3.8,0.2C44.9,75.1,45.3,76.7,46.6,77.6z"
			/>
		<g>
			<path class="st20" d="M41.3,40.6c0,0-2.7-1.8-3.3-1.7c-0.3,0-0.8,0.6-0.8,0.6l-2,3.7l3.1,2.8L41.3,40.6z"/>
			<path class="st22" d="M37.8,39c0,0,0,0-0.1,0.1c-0.1,0.2-0.3,0.6-0.3,1.5c0.2,3.1,0.9,8.8-0.6,9.1c-0.5,0.1-3.7-3.5-3.9-5.2
				C32.8,43.1,34.7,41,37.8,39z"/>
		</g>
		<g>
			<path class="st20" d="M45.9,40.5c0,0,1.8-2.7,2.3-2.9c0.3-0.1,1,0.3,1,0.3l3.3,2.6l-1.7,3.8L45.9,40.5z"/>
			<path class="st22" d="M48.5,37.6c0,0,0,0,0.1,0.1c0.2,0.1,0.5,0.4,0.8,1.3c1,2.9,2.6,8.4,4.2,8.1c0.5-0.1,2-4.7,1.5-6.3
				C54.7,39.4,52,38.2,48.5,37.6z"/>
		</g>
		<g>
			<path class="st24" d="M38.1,45.5c0,1.1,0.7,2,0.9,2.9c0.1,0.5-0.4,3.6,1.9,5.6c0.3,0.3,0.6,0.4,1,0.7c0.7,0.6,1.5,1.3,2.3,1.3
				V39.8C40.9,39.8,38,41.5,38.1,45.5z"/>
			<path class="st25" d="M44.3,39.8C44.3,39.8,44.3,39.8,44.3,39.8l-0.1,16.3c0,0,0,0,0,0c0.9,0,1.9-1,2.5-1.6
				c0.3-0.3,0.4-0.1,0.7-0.3c2.5-2,2.1-5.3,2.2-5.8c0.2-1,0.8-1.9,0.9-2.9C50.9,41.3,47.7,39.8,44.3,39.8z"/>
		</g>
		<g>
			<path class="st26" d="M42.3,51.9h1.9v-5C43.2,46.9,42.4,49.1,42.3,51.9z"/>
			<path class="st27" d="M44.3,46.9v5h1.9C46.1,49.1,45.3,46.9,44.3,46.9z"/>
		</g>
		<g>
			<g>
				<path class="st27" d="M40,55.2c0.7,0.8,2.2,0.6,3.3-0.3c1.1-1,1.3-2.4,0.6-3.2L40,55.2z"/>
				<path class="st28" d="M43.8,51.6c-0.7-0.8-2.2-0.6-3.3,0.3c-1.1,1-1.3,2.4-0.6,3.2l0,0L43.8,51.6L43.8,51.6z"/>
			</g>
		</g>
		<g>
			<g>
				<path class="st27" d="M48.5,55.2c-0.7,0.8-2.2,0.6-3.3-0.3c-1.1-1-1.3-2.4-0.6-3.2L48.5,55.2z"/>
				<path class="st28" d="M44.7,51.6c0.7-0.8,2.2-0.6,3.3,0.3c1.1,1,1.3,2.4,0.6,3.2l0,0L44.7,51.6L44.7,51.6z"/>
			</g>
		</g>
		<g>
			<path class="st29" d="M42.1,51.5c0,1,1.6,1.7,2.2,1.8v-2.8C43,50.5,42.1,50.9,42.1,51.5z"/>
			<path d="M44.3,50.4C44.3,50.4,44.3,50.4,44.3,50.4l-0.1,2.8c0,0,0,0,0.1,0c0.6,0,2.3-0.7,2.3-1.8C46.6,50.9,45.6,50.4,44.3,50.4z
				"/>
		</g>
		<g>
			<g>
				<path class="st22" d="M42.4,47.1c-0.1,0.3-0.1-0.3-0.5-0.5c-0.4-0.1-0.7,0.1-0.9-0.1c-0.3-0.1,0.5-0.4,0.9-0.3
					C42.2,46.4,42.5,46.8,42.4,47.1z"/>
				<g>
					<path class="st29" d="M42.3,47.1c0-0.3-0.3-0.6-0.6-0.6c-0.3,0-0.6,0.3-0.6,0.6c0,0.3,0.3,0.6,0.6,0.6
						C42,47.7,42.3,47.4,42.3,47.1z"/>
					<path class="st4" d="M41.6,46.8c0-0.1-0.1-0.1-0.1-0.1c-0.1,0-0.1,0.1-0.1,0.1c0,0.1,0.1,0.1,0.1,0.1
						C41.5,46.9,41.6,46.9,41.6,46.8z"/>
				</g>
			</g>
			<g>
				<path class="st22" d="M46.3,47.1c0.1,0.3,0.1-0.3,0.5-0.5c0.4-0.1,0.7,0.1,0.9-0.1c0.3-0.1-0.5-0.4-0.9-0.3
					C46.4,46.4,46.2,46.8,46.3,47.1z"/>
				<g>
					<path class="st29" d="M46.4,47.1c0-0.3,0.3-0.6,0.6-0.6c0.3,0,0.6,0.3,0.6,0.6c0,0.3-0.3,0.6-0.6,0.6
						C46.7,47.7,46.4,47.4,46.4,47.1z"/>
					<path class="st4" d="M47.1,46.8c0-0.1,0.1-0.1,0.1-0.1c0.1,0,0.1,0.1,0.1,0.1c0,0.1-0.1,0.1-0.1,0.1
						C47.1,46.9,47.1,46.9,47.1,46.8z"/>
				</g>
			</g>
		</g>
		<g>
			<path class="st22" d="M42,45.4c0,0.2-0.3,0.4-0.6,0.4s-0.6-0.2-0.6-0.4c0-0.2,0.3-0.4,0.6-0.4S42,45.2,42,45.4z"/>
			<path class="st22" d="M47.8,45.4c0,0.2-0.3,0.4-0.6,0.4s-0.6-0.2-0.6-0.4c0-0.2,0.3-0.4,0.6-0.4S47.8,45.2,47.8,45.4z"/>
		</g>
	</g>
</g>
</svg>
